<?xml version="1.0" encoding="UTF-8"?>
<svg id="Layer_2" data-name="Layer 2" xmlns="http://www.w3.org/2000/svg" viewBox="0 0 26.07 26.39">
  <defs>
    <style>
      .cls-1 {
        fill: #e3d798;
      }
    </style>
  </defs>
  <g id="Layer_1-2" data-name="Layer 1">
    <path class="cls-1" d="M.11,11.87L0,.25l11.62-.11c0,2.16-.52,4.12-1.55,5.87-.5.87-1.1,1.66-1.79,2.37s-1.67,1.44-2.97,2.23c-1.3.79-3.03,1.21-5.2,1.27ZM17.69,8.29c-.7-.68-1.44-1.67-2.23-2.97-.79-1.3-1.21-3.03-1.27-5.2l11.62-.11.11,11.62c-2.17-.01-4.13-.53-5.87-1.55-.87-.5-1.66-1.1-2.37-1.79ZM.25,26.39l-.11-11.62c3.26.01,6.01,1.12,8.26,3.32.71.69,1.45,1.69,2.23,2.99s1.2,3.03,1.25,5.2l-11.62.11ZM11.62,14.64c-.4-.39-.6-.86-.6-1.42,0-.56.19-1.04.57-1.44s.86-.6,1.42-.6c.56,0,1.04.19,1.44.57s.6.86.6,1.42c0,.56-.19,1.04-.57,1.43s-.86.6-1.42.6c-.56,0-1.04-.19-1.43-.57ZM14.45,26.25c.01-2.17.53-4.13,1.55-5.87.51-.88,1.11-1.67,1.79-2.37s1.69-1.45,2.99-2.24,3.03-1.21,5.19-1.25l.11,11.62-11.62.11Z"/>
  </g>
</svg>